<svg xmlns="http://www.w3.org/2000/svg" viewBox="0 0 512 512"><path d="M 76.300781 30 A 8.463 8.463 0 0 0 68 38.240234 L 68 231.07422 C 68 229.83022 66.662578 228.74345 65.517578 227.93945 A 7.824 7.824 0 0 0 59.617188 226.60547 L 15.935547 234.25391 A 7.99 7.99 0 0 0 9.4628906 243.51367 L 26.248047 339.45117 A 8.008 8.008 0 0 0 34.121094 346.07422 A 8.012 8.012 0 0 0 35.509766 345.95312 L 79.228516 338.30664 A 8 8 0 0 0 85.728516 329.04688 L 85.142578 325.69531 L 94.15625 318.37695 A 17.41 17.41 0 0 1 106.58398 314.40039 L 177.87695 319.61133 C 178.05495 319.62533 178.23411 319.63081 178.41211 319.63281 A 77.1 77.1 0 0 0 224.1875 304.80078 A 7.966 7.966 0 0 0 225.05078 304.06445 L 309.97266 220.91797 A 8 8 0 0 0 310.47266 209.95508 A 32.388 32.388 0 0 0 293 199.89258 L 293 38.240234 A 8.3 8.3 0 0 0 284.90039 30 L 76.300781 30 z M 84 46 L 140 46 L 140 89.958984 A 7.882 7.882 0 0 0 150.50977 97.507812 L 180.60938 86.943359 L 210.70898 97.507812 A 7.632 7.632 0 0 0 217.80859 96.486328 A 7.838 7.838 0 0 0 221 89.958984 L 221 46 L 277 46 L 277 201.16797 A 31.351 31.351 0 0 0 268.35156 205.91406 L 231.30078 233.59961 A 38.107 38.107 0 0 0 196.97656 222.14648 L 157.09961 229.12305 A 40.368 40.368 0 0 1 139.19922 228.18945 L 134.5918 226.92188 A 75.678 75.678 0 0 0 84 230.14648 L 84 46 z M 156 46 L 205 46 L 205 78.673828 L 183.06836 70.917969 A 7.518 7.518 0 0 0 177.93945 70.917969 L 156 78.673828 L 156 46 z M 130.59961 133 A 8 8 0 0 0 130.59961 149 L 196.11133 149 A 8 8 0 0 0 196.11133 133 L 130.59961 133 z M 130.59961 167 A 8 8 0 0 0 130.59961 183 L 230.5918 183 A 8 8 0 0 0 230.5918 167 L 130.59961 167 z M 287.67188 215.44141 A 14.642 14.642 0 0 1 291.96094 216.24609 L 214.27734 292.40039 A 61.2 61.2 0 0 1 178.86523 304 L 178.76562 304 L 107.74805 298.62695 A 33.2 33.2 0 0 0 84.007812 306.09961 L 81.986328 307.69922 L 73.048828 256.58203 A 59.1 59.1 0 0 1 130.36133 242.32617 L 134.81836 243.58984 A 56.4 56.4 0 0 0 159.85156 244.88867 L 199.7207 237.91406 A 22.132 22.132 0 0 1 222.43359 248.24609 L 166.25391 258.07227 A 8 8 0 0 0 167.62305 273.95508 A 8.112 8.112 0 0 0 169.01172 273.83398 L 234.54688 262.36914 A 8 8 0 0 0 241.04688 253.11133 A 38.192 38.192 0 0 0 239.57617 247.37305 L 277.95703 218.67383 L 278.12305 218.54688 A 14.642 14.642 0 0 1 287.67188 215.44141 z M 54.564453 243.74609 L 68.589844 323.92383 L 40.632812 328.81445 L 26.607422 248.63672 L 54.564453 243.74609 z M 223.71094 335.07031 A 30.664 30.664 0 0 0 201.58203 345.63867 A 8 8 0 0 0 202.02734 356.59961 L 286.94727 439.74805 A 7.957 7.957 0 0 0 287.8125 440.48242 A 77.153 77.153 0 0 0 333.58594 455.31836 C 333.76494 455.31836 333.94309 455.30987 334.12109 455.29688 L 405.41406 450.08594 A 17.467 17.467 0 0 1 417.90625 454.11328 L 426.85547 461.38086 L 426.26953 464.73242 A 8 8 0 0 0 432.76953 473.99023 L 476.48828 481.63867 A 8.112 8.112 0 0 0 477.87695 481.75977 A 8 8 0 0 0 485.74805 475.13672 L 502.53125 379.19922 A 8 8 0 0 0 496.03125 369.94141 L 496.0293 369.94141 L 452.31055 362.29492 A 8 8 0 0 0 443.05273 368.79492 L 442.12891 374.07617 A 75 75 0 0 0 377.25977 362.60742 L 372.79883 363.87695 A 40.348 40.348 0 0 1 354.90625 364.80859 L 315.03711 357.83398 A 38.083 38.083 0 0 0 280.72656 369.28516 L 243.69922 341.59961 A 30.664 30.664 0 0 0 223.71094 335.07031 z M 224.35547 351.06445 A 14.678 14.678 0 0 1 233.875 354.23047 C 233.93 354.27347 233.98502 354.31642 234.04102 354.35742 L 272.42188 383.05664 A 38.115 38.115 0 0 0 270.95117 388.79688 A 8 8 0 0 0 277.45117 398.05469 L 342.98633 409.51953 A 8.112 8.112 0 0 0 344.375 409.64062 A 8 8 0 0 0 345.74414 393.75781 L 289.56445 383.93164 A 22.131 22.131 0 0 1 312.2793 373.59961 L 352.14844 380.57422 A 56.444 56.444 0 0 0 377.17969 379.27344 L 381.63867 378 A 59.088 59.088 0 0 1 438.95117 392.24414 L 430.01367 443.33789 L 428.05664 441.74609 A 33.326 33.326 0 0 0 404.24805 434.13086 L 333.23047 439.32031 A 61.125 61.125 0 0 1 297.72266 427.90625 L 220.03711 351.8418 A 14.678 14.678 0 0 1 224.35547 351.06445 z M 457.43555 379.43164 L 485.39258 384.32227 L 471.36719 464.5 L 443.41016 459.60938 L 457.43555 379.43164 z"></path></svg>
