<svg xmlns="http://www.w3.org/2000/svg" width="64" height="64" viewBox="0 0 64 64"><path fill="#c4a2fc" d="M42,34.90332l19.99988-9.00006L42.41016,17.08789a1.001,1.001,0,0,0-.82032,0L22.00012,25.90326Z"></path><path fill="#c4a2fc" d="M43,36.64667V60a1,1,0,0,1-2,0V36.64667L21,27.64655V53a.9997.9997,0,0,0,.58984.91211l20,9a1.00125,1.00125,0,0,0,.82032,0l20-9A.9997.9997,0,0,0,63,53V27.64655Zm17.41016,14.679-12,5.40039a1.00008,1.00008,0,1,1-.82032-1.82421l12-5.4004a1.00009,1.00009,0,0,1,.82032,1.82422Zm0-5-4,1.79981a1.00009,1.00009,0,1,1-.82032-1.82422l4-1.79981a1.00009,1.00009,0,0,1,.82032,1.82422Z"></path><path fill="#151a6a" d="M46,50H6a5.00588,5.00588,0,0,1-5-5V6A5.00588,5.00588,0,0,1,6,1H46a5.00588,5.00588,0,0,1,5,5V45A5.00588,5.00588,0,0,1,46,50ZM6,3A3.00328,3.00328,0,0,0,3,6V45a3.00328,3.00328,0,0,0,3,3H46a3.00328,3.00328,0,0,0,3-3V6a3.00328,3.00328,0,0,0-3-3Z"></path><path fill="#151a6a" d="M30,45H7a.99974.99974,0,0,1-1-1V36a.99974.99974,0,0,1,1-1H30a6,6,0,0,0,0-12H21v6a1.00029,1.00029,0,0,1-1.64551.76318l-13-11a.9992.9992,0,0,1,0-1.52636l13-11A1.00012,1.00012,0,0,1,21,7v6h9a16,16,0,0,1,0,32ZM8,43H30a14,14,0,0,0,0-28H20a.99974.99974,0,0,1-1-1V9.15625L8.54785,18,19,26.84375V22a.99974.99974,0,0,1,1-1H30a8,8,0,0,1,0,16H8Z"></path></svg>
