<svg xmlns="http://www.w3.org/2000/svg" height="24" viewBox="0 0 24 24" width="24"><path d="M0 0h24v24H0V0z" fill="none"/>
<path id="cat-fitness_a" d="M23 12.142c0-.644-.488-1.185-1.123-1.21V8.51c0-1.056-.806-1.906-1.807-1.906a1.5 1.5 0 0 0-.488.077V5.498C19.582 4.133 18.507 3 17.189 3c-1.319 0-2.393 1.107-2.393 2.498v5.433H9.229V5.498C9.229 4.133 8.154 3 6.836 3 5.517 3 4.443 4.107 4.443 5.498v1.184a1.5 1.5 0 0 0-.489-.077c-1 0-1.806.85-1.806 1.906v2.42c-.635 0-1.148.541-1.148 1.21 0 .67.513 1.21 1.148 1.21v2.138c0 1.056.805 1.906 1.806 1.906a1.5 1.5 0 0 0 .489-.077v1.184C4.443 19.867 5.517 21 6.836 21c1.318 0 2.393-1.107 2.393-2.498v-5.15h5.591v5.15c0 1.365 1.075 2.498 2.393 2.498 1.319 0 2.393-1.107 2.393-2.498v-1.184a1.5 1.5 0 0 0 .488.077c1.001 0 1.807-.85 1.807-1.906v-2.137c.61-.026 1.099-.567 1.099-1.21zM3.979 16.004a.504.504 0 0 1-.488-.515V8.511c0-.284.22-.515.488-.515.269 0 .488.231.488.515v6.978c0 .284-.22.515-.488.515zm3.931 2.498c0 .618-.488 1.107-1.074 1.107-.586 0-1.075-.489-1.075-1.107V5.498c0-.618.489-1.107 1.075-1.107S7.91 4.88 7.91 5.498v13.004zm10.353 0c0 .618-.488 1.107-1.074 1.107-.586 0-1.075-.489-1.075-1.107V5.498c0-.618.489-1.107 1.075-1.107s1.074.489 1.074 1.107v13.004zm2.295-3.013c0 .284-.22.515-.488.515a.504.504 0 0 1-.488-.515V8.511c0-.284.22-.515.488-.515.269 0 .488.231.488.515v6.978z"></path>
</svg>
