<svg xmlns="http://www.w3.org/2000/svg" height="24" viewBox="0 0 24 24" width="24"><path d="M0 0h24v24H0V0z" fill="none"/>

<defs>
<style>
.cls{

  background:red;
}
</style>
</defs>

<path id="cat-appliance_a" d="M19.001 20.75h-15a.501.501 0 0 1-.5-.5c0-.275.225-.5.5-.5h15c.275 0 .5.225.5.5s-.225.5-.5.5zM3.5 3.583c0-.046.037-.083.083-.083h15.834c.046 0 .083.037.083.083v3.334a.083.083 0 0 1-.083.083H3.583a.083.083 0 0 1-.083-.083V3.583zM9.75 9.5h3.5v-1h-3.5v1zm5.603 5.533c.021.019.048.027.069.047.209.209.329.498.329.795a.75.75 0 0 0 1.5 0c0-.692-.28-1.369-.77-1.856a2.602 2.602 0 0 0-1.856-.769H9.079a1.373 1.373 0 0 0-1.332 1.718c.038.149.074.309.112.477.189.836.462 2.009 1.272 2.805H4.75V8.5h3.5v1.75c0 .414.336.75.75.75h.5v.5a.75.75 0 0 0 1.5 0V11h1v.5a.75.75 0 0 0 1.5 0V11h.5a.75.75 0 0 0 .75-.75V8.5h3.5v9.75h-4.114c.914-.841 1.154-2.137 1.217-3.217zm-6.115-.283h4.626c-.061 1.718-.429 2.875-2.364 2.875-1.503 0-1.825-.948-2.178-2.51-.028-.126-.055-.249-.084-.365zm10.512 3.648a2.002 2.002 0 0 1 1.251 1.852c0 1.103-.897 2-2 2h-15c-1.103 0-2-.897-2-2 0-.837.518-1.553 1.249-1.851V8.463A1.583 1.583 0 0 1 2 6.917V3.583C2 2.71 2.71 2 3.583 2h15.834C20.29 2 21 2.71 21 3.583v3.334c0 .759-.536 1.393-1.25 1.546v9.935zM17.437 5.855a.918.918 0 1 0 0-1.836.918.918 0 0 0 0 1.835zm-3.125 0a.918.918 0 1 0 0-1.836.918.918 0 0 0 0 1.835z" class="cls"></path>
</svg>
