<svg xmlns="http://www.w3.org/2000/svg" height="24" viewBox="0 0 24 24" width="24"><path d="M0 0h24v24H0z" fill="none"/>
<defs>
<style>
.cls{
    fill:#fff;
}
</style>
</defs>
<path d="M17.52 3H6.48A3.48 3.48 0 0 0 3 6.48v11.04A3.48 3.48 0 0 0 6.48 21h11.04A3.48 3.48 0 0 0 21 17.52V6.48A3.48 3.48 0 0 0 17.52 3zm1 2.08h.4v3.04l-3.04.01-.01-3.05h2.65zm-9.09 5.07A3.16 3.16 0 0 1 12 8.83 3.16 3.16 0 0 1 15.17 12 3.17 3.17 0 0 1 12 15.17 3.17 3.17 0 0 1 8.83 12c0-.69.23-1.33.6-1.85zm9.82 7.37c0 .95-.78 1.73-1.73 1.73H6.48a1.73 1.73 0 0 1-1.73-1.73v-7.37h2.7A4.89 4.89 0 0 0 7.07 12 4.93 4.93 0 0 0 12 16.92 4.93 4.93 0 0 0 16.92 12c0-.65-.13-1.28-.36-1.85h2.69v7.37z" class="cls"></path></svg>
