<svg xmlns="http://www.w3.org/2000/svg" height="24" viewBox="0 0 24 24" width="800"><path d="M0 0h24v24H0z" fill="none"/>
<path d="M131.366 16.02a28.307 28.307 0 0 1-.685 2.265v.227c-.23.679-.686.905-1.143.905h-.458c-.228 0-.457-.226-.685-.226-.23-.227-.23-.453-.23-.68l.458-2.49c0-.227 0-.453.229-.453-3.658-.906-6.401-4.076-6.401-8.152 0-.68 0-1.132.228-1.812h-10.515c-.686 0-1.143-.452-1.372-.905l-.457-2.038c-.229-.906-.914-1.359-1.829-1.359h-3.2c-.686 0-1.143.453-1.143 1.132 0 .68.457 1.132 1.143 1.132h1.6c.686 0 1.143.453 1.372.906l4.114 16.304c.229.906.915 1.359 1.83 1.359h16.687c.915 0 1.6-.453 1.829-1.36l1.372-5.66c-.915.453-1.83.453-2.744.68v.226zm-18.974-4.528c-.228-.68-.228-1.132-.457-1.812l-.228-.453c0-.226 0-.452.228-.679.229-.226.457-.453.686-.453h1.143c.686 0 1.143.453 1.143 1.132l.457 2.265c0 .226 0 .453-.228.68-.229.226-.458.226-.686.226h-.686c-.686 0-1.143-.227-1.372-.906zm4.115 7.699c-.228.226-.457.453-.686.453h-.228c-.686 0-1.143-.453-1.372-.906v-.226a28.307 28.307 0 0 1-.686-2.265c0-.226 0-.453.229-.68.229-.226.457-.452.686-.452h.686c.685 0 1.143.453 1.143 1.132l.457 2.491s0 .226-.229.453zm4.572-.68c0 .453-.457.906-.914.906s-.915-.453-1.143-.905l-.457-2.718c0-.226 0-.453.228-.68.229-.226.457-.452.686-.452h.457c.686 0 1.143.453 1.143 1.132v2.718zm0-7.02c0 .68-.457 1.133-1.143 1.133h-.914c-.686 0-1.143-.453-1.143-1.132l-.457-2.265c0-.226 0-.452.228-.679.229-.226.457-.453.686-.453h1.372c.685 0 1.143.453 1.143 1.132v2.265h.228zm4.8 4.53l-.456 2.717c0 .453-.458.906-1.143.906-.458 0-.915-.453-.915-.906v-2.49c0-.68.457-1.133 1.143-1.133h.457c.23 0 .458.226.686.453.229 0 .457.226.229.453z" fill="#FFF"></path></svg>
