<svg xmlns="http://www.w3.org/2000/svg" height="24" viewBox="0 0 24 24" width="24"><path d="M0 0h24v24H0z" fill="none"/>
<defs>
<style>
.cls{
    fill:#fff;
}
</style>
</defs>
<path id="pay-jumiapay_a" d="M53.52 9.1a2.63 2.63 0 0 1 .33-.42 19.14 19.14 0 0 0-.08-1.23 43.45 43.45 0 0 1-1.35-.11 13.66 13.66 0 0 1-2.7-.57c-.45.15-1.41.44-2.71.57-.61.05-1.05.09-1.37.1-.09.72-.12 1.42-.1 2.1.12 4.26 2.19 6.5 4.16 7.21 1.54-.54 3.15-2.04 3.83-4.74a.3.3 0 0 1-.03-.04c-.05-.07-.08-.16-.12-.24a2.54 2.54 0 0 1-.09-.2c-.57 2.72-2.1 4.25-3.6 4.84-1.82-.72-3.7-2.84-3.8-6.83a14.74 14.74 0 0 1 .07-1.74l1.09-.1a12.9 12.9 0 0 0 2.66-.55c.5.17 1.44.43 2.67.55l1.07.1c.04.43.07.88.07 1.3zm.54 3.55c-.8 2.63-2.5 4.27-4.35 4.85l-.03.02-.04-.02c-2.49-.78-4.7-3.5-4.82-7.95-.02-.84.03-1.76.17-2.73l.02-.1s.44.03 1.91-.12c1.69-.16 2.77-.6 2.77-.6s1.1.42 2.78.6c1.47.15 1.9.12 1.9.12l.01.1c.07.46.11.9.14 1.32a2.64 2.64 0 0 1 1.21-.3 2.44 2.44 0 0 1 1.35.4l.21.14.2.17.08.09c.1.09.18.18.25.3l.14.21c.25.4.39.9.44 1.37 0 .54-.14 1.01-.39 1.44l-.07.1-.16.22a1.9 1.9 0 0 1-.17.2 3.63 3.63 0 0 1-.5.42.37.37 0 0 1-.11.08c-.37.2-.81.33-1.25.33-.44 0-.88-.11-1.25-.33l-.2-.15-.22-.16a3.04 3.04 0 0 1-.02-.02zm.41-2.08l.3.3-.23 1.4 1.2-.66 1.18.66-.22-1.4.96-.99-1.33-.2-.6-1.26-.6 1.26-.6.1c-.01.27-.03.53-.06.8zm-.63-.7l-.04.01.04.04v-.04zm-43.82 6.81a1.76 1.76 0 0 1-.39-.64 2.7 2.7 0 0 1-.14-.92V9.37h1.28v5.66c0 .68.58 1.03 1.74 1.03h1.98c1.14 0 1.72-.35 1.72-1.03V9.37h1.27v5.77c0 .77-.25 1.34-.74 1.7-.5.4-1.32.57-2.44.57h-1.61l-.7-.01a4.83 4.83 0 0 1-.73-.1 3.78 3.78 0 0 1-.68-.22 2.13 2.13 0 0 1-.56-.4zm19.63.79v-.02h-1.28v-5.6l-3.35 5.22c-.1.14-.2.27-.35.34a.9.9 0 0 1-.42.11c-.33 0-.58-.14-.79-.45l-3.4-5.26v5.64h-1.28v-7.29c0-.26.07-.44.19-.59a.65.65 0 0 1 .49-.2c.32 0 .56.13.74.39l4.05 6.02 3.98-6.02a.8.8 0 0 1 .7-.39c.23 0 .4.07.53.24.12.16.2.38.2.64v7.22zm1.25-8.1h1.28v8.03H30.9V9.37zm9.62 5.85h-4.7l-1.2 2.23h-1.5l4.33-7.57c.19-.34.43-.5.73-.5.32 0 .56.16.76.49l4.24 7.58h-1.44l-1.22-2.23zm-2.39-4.09l-1.6 2.77h3.21l-1.6-2.77zM7.02 13.84l.02-3V9.39h1.28l-.06 4.45c0 2.27-.72 3.46-2.35 3.83-1.12.26-1.68.31-1.9.33L4 16.5a7.81 7.81 0 0 0 2.05-.39c.7-.29 1-1 .97-2.27zm57.13-4.58c1.69 0 2.78 1.06 2.78 2.71 0 1.67-1.07 2.71-2.78 2.71h-2.44v2.84h-1.14V9.26h3.58zm-2.44 1.15v3.17h2.4c1.08 0 1.68-.56 1.68-1.59s-.6-1.58-1.69-1.58h-2.38zm8.11-1.15h1.27l3.35 8.26h-1.25l-.93-2.3h-3.63l-.93 2.3h-1.25l3.37-8.26zm1.99 4.86l-1.36-3.4-1.35 3.4h2.7zm7.8-4.86H81l-3.33 5.02v3.26h-1.13v-3.26L73.2 9.26h1.39l2.52 3.8 2.51-3.8z" class="cls"></path></svg>
