<svg xmlns="http://www.w3.org/2000/svg" height="24" viewBox="0 0 24 24" width="24"><path d="M0 0h24v24H0z" fill="none"/>
<defs>
<style>
.cls{
    fill:#fff;
}
</style>
</defs>
<path fill-rule="evenodd" d="M4.8 10.47c-.42-.11-.68-.4-.78-.83L4 9.58v-.35l.19-.45c.02-.05.07-.1.1-.14l4.34-4.42.08-.05-.02-.03H6a1.1 1.1 0 0 1-1.1-1.21c.05-.57.5-1.02 1.07-1.02h5.4c.6 0 1.08.49 1.08 1.11V8.5a1.1 1.1 0 0 1-.93 1.1 1.09 1.09 0 0 1-1.25-1.08V5.74l-.03-.02-.16.18-4.2 4.28c-.3.3-.67.41-1.09.3zm17.17-8.54c0 .03.02.05.03.08v.2l-.09.3c-.05.16-.15.3-.27.42L19.99 4.6l-2.6 2.65-.13.13h2.76c.56 0 1.02.47 1.06 1.03a1.1 1.1 0 0 1-1.14 1.18h-5.26a1.08 1.08 0 0 1-1.13-1.08V3a1.08 1.08 0 1 1 2.16.02V5.8c.04-.02.06-.02.07-.04l1.47-1.5 1.5-1.52 1.36-1.38c.16-.17.36-.28.58-.33.03 0 .06-.02.08-.03h.26l.09.03c.47.12.75.42.85.9zM7.03 18.03h1.1l.05.01v3.94h-.8v-2.74h-.02l-.2.6c-.24.68-.48 1.37-.7 2.07-.03.06-.06.08-.12.08h-.5c-.06 0-.1-.02-.11-.08l-.6-1.74-.3-.88-.03-.03V22H4v-3.96h1.12c.07 0 .1.02.12.1l.84 2.51c0 .03.02.06.04.1l.19-.6.64-2.03c.02-.05.03-.08.08-.08zm-1.98-4.06a1.81 1.81 0 0 0-.02 1.63c.33.71 1.34.68 1.7.1a1.86 1.86 0 0 0 .09-1.62.92.92 0 0 0-.86-.61c-.4-.02-.73.13-.91.5zm-.33 2.5a1.9 1.9 0 0 1-.7-1.31L4 15.08v-.55l.08-.39c.28-1.04 1.16-1.55 2.2-1.38.84.14 1.37.78 1.5 1.61.08.48.05.95-.15 1.4-.3.67-.82 1.03-1.54 1.1-.5.03-.97-.07-1.37-.4zm15.25-1.44h1.23c-.04-.4-.27-.62-.63-.6-.35.02-.6.26-.6.6zm.78-1.19c.65.06 1.1.51 1.21 1.2l.04.2v.3h-2.02c-.04.29.13.59.4.67.28.1.55.05.78-.17l.02-.02c.05-.14.16-.14.28-.13h.47v.05c-.18.54-.59.86-1.14.9-.36.04-.71-.02-1.02-.23a1.4 1.4 0 0 1-.58-1.1 1.6 1.6 0 0 1 .25-1.06c.32-.47.77-.65 1.31-.6zm-1.86 7.22l.6-1.93h.81l-.06.2-1.1 3c-.14.39-.38.63-.8.66l-.02.01h-.37l-.26-.04v-.64l.35.02c.29.02.46-.19.38-.47l-.32-.88-.64-1.75-.04-.1h.83l.62 1.91h.02zm-.98-5.14c.17-.18.22-.4.22-.62 0-.2-.03-.38-.1-.54a.58.58 0 0 0-.56-.33.53.53 0 0 0-.51.34 1.2 1.2 0 0 0 0 1c.2.42.72.4.95.15zm.21-2h.75v2.64c0 .16-.02.33-.06.49a.96.96 0 0 1-.59.66 1.9 1.9 0 0 1-1.4.04c-.36-.13-.6-.37-.65-.77v-.04h.59c.11-.01.18 0 .24.13.09.21.33.28.57.25.33-.03.5-.2.54-.53.03-.16 0-.33 0-.52a.91.91 0 0 1-.37.33c-.67.3-1.4-.05-1.6-.78a1.9 1.9 0 0 1 .13-1.38c.29-.56 1.04-.79 1.56-.47a.9.9 0 0 1 .16.13l.13.17v-.35zm-6.25 1.97c.03-.16.03-.32.03-.47l-.49.1c-.16.03-.32.04-.46.15-.13.09-.16.22-.13.37.02.14.1.23.24.25.13.02.27.03.4 0a.47.47 0 0 0 .41-.4zm-1.13-1.94c.48-.17.97-.16 1.44 0 .34.11.5.36.5.72v1.53c0 .19.04.38.06.58h-.67c-.07 0-.1-.02-.1-.09l-.04-.17c-.2.17-.4.28-.65.3-.18.03-.37.04-.55 0-.49-.08-.73-.42-.7-.92a.73.73 0 0 1 .6-.7c.27-.07.54-.1.8-.14.1-.01.19-.03.27-.06.15-.05.2-.13.2-.28 0-.16-.08-.28-.22-.32a.84.84 0 0 0-.51 0c-.18.06-.25.2-.28.4h-.77c0-.4.23-.72.62-.85zm4.73 6.3h1.23c-.03-.39-.26-.6-.6-.6-.36 0-.6.23-.63.6zm2.04.5h-2.04c-.04.53.45.87.95.66a.6.6 0 0 0 .32-.27c0-.02.03-.04.05-.04h.65c-.08.27-.2.5-.4.67-.28.23-.6.3-.95.3a1.32 1.32 0 0 1-1.13-.57c-.2-.27-.27-.58-.28-.9 0-.43.1-.81.4-1.11.4-.43.91-.54 1.46-.38.54.15.8.57.91 1.1.04.17.04.35.06.54zm-6.96.33c.14-.35.14-.7 0-1.05a.6.6 0 0 0-.56-.39c-.27 0-.47.11-.59.36-.08.18-.1.37-.1.56h-.03c.04.18.06.36.12.52.1.26.3.38.58.39a.6.6 0 0 0 .58-.39zm.09-1.9c.45.21.69.59.77 1.08l.02.3c0 .4-.1.76-.37 1.07-.18.2-.41.33-.68.39-.4.09-.79.07-1.15-.13-.45-.24-.66-.65-.7-1.15-.03-.27-.01-.53.08-.78.2-.55.6-.83 1.15-.9.3-.04.6 0 .88.12zm4.32-4.33c-.06-.29-.25-.42-.54-.39-.33.04-.5.24-.5.63-.02.52-.02 1.04-.02 1.56v.12h-.77v-2.85h.74v.35c.12-.1.22-.22.36-.3.35-.2.73-.18 1.09-.01.22.1.34.3.39.53.03.14.05.3.05.44v1.84H15v-1.59l-.03-.33zm-.57 5.43v1.7h-.77V20.32c0-.12-.03-.25-.07-.37-.05-.16-.16-.24-.32-.27-.4-.06-.66.15-.69.59v1.71h-.78v-2.85h.73v.34l.24-.2c.4-.34 1.1-.25 1.37 0a1 1 0 0 1 .28.63l.01.38zM9.9 13.84c.07 0 .09.03.09.1v.64h-.4c-.3.03-.5.2-.58.5-.03.13-.05.26-.06.4v1.29h-.77v-2.85h.73v.47c.13-.2.3-.36.5-.46a.9.9 0 0 1 .5-.1z" class="cls"></path></svg>
