<svg xmlns="http://www.w3.org/2000/svg" height="24" viewBox="0 0 24 24" width="24"><path d="M0 0h24v24H0V0z" fill="none"/>
<path id="cat-baby_a" d="M21.58 11.335a2.913 2.913 0 0 1 2.121 2.81 2.907 2.907 0 0 1-2.182 2.832c-.237 1.947-1.184 3.398-2.819 4.317-1.477.83-3.555 1.232-6.35 1.232-2.794 0-4.872-.402-6.349-1.232-1.635-.919-2.582-2.37-2.819-4.317A2.907 2.907 0 0 1 1 14.145c0-1.316.867-2.455 2.121-2.81v-.107c0-5.088 4.141-9.227 9.23-9.227 5.088 0 9.23 4.139 9.23 9.228v.106zm-18.459 1.77a1.33 1.33 0 0 0-.51 1.04c0 .408.194.795.51 1.042v-2.082zm8.956-4.902c.808 0 1.465-.656 1.465-1.463 0-1.14-1.192-2.74-3.432-2.794-3.168.977-5.378 3.969-5.378 7.282v4.744c0 1.86.672 3.14 2.055 3.917 1.23.692 3.051 1.027 5.563 1.027 2.513 0 4.333-.335 5.563-1.027 1.384-.776 2.056-2.058 2.056-3.917v-4.743a7.616 7.616 0 0 0-6.227-7.49l.032.03c.863.821 1.378 1.933 1.378 2.97a3.08 3.08 0 0 1-3.075 3.076 2.624 2.624 0 0 1-2.62-2.621 2.261 2.261 0 0 1 2.257-2.26.806.806 0 0 1 0 1.61.649.649 0 0 0-.648.65c0 .556.453 1.01 1.011 1.01zm-2.06 8.576a.818.818 0 0 1 1.27-1.03 1.42 1.42 0 0 0 2.212 0 .816.816 0 0 1 1.15-.12.816.816 0 0 1 .12 1.15 3.044 3.044 0 0 1-2.374 1.134 3.049 3.049 0 0 1-2.378-1.134zm-2.382-4.524a1.905 1.905 0 0 1 2.69 0 .817.817 0 1 1-1.156 1.157.271.271 0 0 0-.38 0 .813.813 0 0 1-1.154 0 .815.815 0 0 1 0-1.157zm7.405 1.397a.817.817 0 0 1-.578-1.397 1.904 1.904 0 0 1 2.692 0 .817.817 0 1 1-1.157 1.157.27.27 0 0 0-.379 0 .813.813 0 0 1-.578.24zm7.05.494a1.33 1.33 0 0 0-.51-1.04v2.08a1.33 1.33 0 0 0 .51-1.04z"></path>
</svg>
