<svg xmlns="http://www.w3.org/2000/svg" height="24" viewBox="0 0 24 24" width="24"><path d="M0 0h24v24H0V0z" fill="none"/>
<path id="cat-computing_a" d="M19 17.4H5.25c-.965 0-1.75-.785-1.75-1.75v-.15h17.25v.15c0 .965-.785 1.75-1.75 1.75zM14.358 21H9.892l.364-2.1h3.738l.364 2.1zM5.25 4.5H19c.965 0 1.75.785 1.75 1.75V14H3.5V6.25c0-.965.785-1.75 1.75-1.75zM19 3H5.25A3.254 3.254 0 0 0 2 6.25v9.4a3.254 3.254 0 0 0 3.25 3.25h3.483L8.369 21H7.125a.75.75 0 0 0 0 1.5h10a.75.75 0 0 0 0-1.5h-1.244l-.364-2.1H19a3.254 3.254 0 0 0 3.25-3.25v-9.4A3.254 3.254 0 0 0 19 3z"></path>
</svg>
