<?xml version="1.0" encoding="utf-8"?>
<!-- Generator: Adobe Illustrator 25.1.0, SVG Export Plug-In . SVG Version: 6.00 Build 0)  -->
<svg version="1.1" id="Calque_1" xmlns="http://www.w3.org/2000/svg" xmlns:xlink="http://www.w3.org/1999/xlink" x="0px" y="0px"
	 viewBox="0 0 841.89 595.28" enable-background="new 0 0 841.89 595.28" xml:space="preserve">
<g>
	<path fill="#020202" d="M432.62,261.83c-79.46-4.25-52.11-86.02,16.67-69.41C508.9,205.47,485.22,264.94,432.62,261.83z"/>
	<path fill="#FEFEFE" d="M434.39,256.08c-28.13,2.75-61.48-29.14-30.91-50.75C459.25,168.11,518.61,248.18,434.39,256.08z"/>
	<path d="M453.53,221.84c15.45,1.5-3.97,16.2-5.99,4.27C447.6,222.37,450.39,221.7,453.53,221.84z"/>
	<path d="M433.74,230.32c-7.35,0.95-6.81-9.95,0.39-8.44C441.53,220.8,440.9,231.72,433.74,230.32z"/>
	<path d="M415.83,230.31c-8.02,1.65-8.44-9.38-0.84-8.45C422.06,221.06,422.36,231.32,415.83,230.31z"/>
</g>
</svg>
