<svg version="1.1" id="Calque_1" xmlns="http://www.w3.org/2000/svg" xmlns:xlink="http://www.w3.org/1999/xlink" x="0px" y="0px"
	 viewBox="0 0 24 24" width="24" enable-background="new 0 0 841.89 595.28" xml:space="preserve">
<g>
	<path fill="none" d="M410.49,266.15c-36.51-1.95-23.94-39.53,7.66-31.9C445.54,240.26,434.66,267.59,410.49,266.15z"/>
	<path fill="#FEFEFE" d="M411.31,263.51c-12.93,1.27-28.25-13.39-14.2-23.32C422.73,223.09,450,259.89,411.31,263.51z"/>
	<path d="M420.1,247.78c7.1,0.69-1.82,7.45-2.75,1.96C417.37,248.02,418.66,247.72,420.1,247.78z"/>
	<path d="M411,251.68c-3.38,0.44-3.13-4.57,0.18-3.88C414.58,247.3,414.29,252.32,411,251.68z"/>
	<path d="M402.78,251.67c-3.68,0.76-3.88-4.31-0.38-3.88C405.64,247.42,405.78,252.14,402.78,251.67z"/>
</g>
</svg>
