<svg xmlns="http://www.w3.org/2000/svg" height="24" viewBox="0 0 24 24" width="190"><path d="M0 0h24v24H0z" fill="none"/>
<path d="M115.23 24.739a3.244 3.244 0 0 0-3.255 3.255 3.244 3.244 0 0 0 3.255 3.255 3.244 3.244 0 0 0 3.255-3.255c0-1.628-1.502-3.255-3.255-3.255zm15.624 0a3.244 3.244 0 0 0-3.255 3.255 3.244 3.244 0 0 0 3.255 3.255 3.244 3.244 0 0 0 3.256-3.255c0-1.628-1.503-3.255-3.256-3.255zm-95.716-.677c-1.396.937-3.49 1.406-6.748 1.406h-6.05c-.699 0-1.397 0-1.862-.235-.698-.234-1.164-.234-1.862-.468-.698-.235-1.163-.703-1.629-1.172-.465-.469-.698-.938-1.163-1.64-.233-.704-.466-1.407-.466-2.344v-15h3.956v14.765c0 1.64 1.397 2.344 4.422 2.344h5.352c2.792 0 4.189-.703 4.189-2.344V4.61h3.956v15c0 1.875-.698 3.515-2.095 4.453zm31.648 1.64V12.11L58.41 24.765c-.233.468-.698.703-.931.937-.466.235-.698.235-1.164.235-.93 0-1.629-.47-2.327-1.407l-8.61-12.655v13.827h-3.956V6.718c0-.703.233-1.171.698-1.64.466-.469.931-.703 1.397-.703.93 0 1.629.469 2.094 1.172l10.472 15 10.239-15c.465-.703 1.163-1.172 2.094-1.172.698 0 1.164.234 1.629.703.465.469.698.937.698 1.875v18.75h-3.956zm7.679-.234V4.375h3.956v21.093zm30.485.234l-3.258-5.625H89.59l-3.258 5.625H81.68L93.314 6.015c.466-.937 1.397-1.406 2.095-1.406.93 0 1.629.469 2.327 1.406l11.402 19.687h-4.188zM95.409 9.765l-3.724 6.328h7.447l-3.723-6.328zm-83.541 6.328c0 6.328-2.327 9.14-6.516 10.078-3.956.937-5.352.937-5.352.937v-4.453c1.629 0 3.956-.468 5.585-.937 1.396-.469 2.56-1.875 2.327-5.625V4.375h3.956v11.718z" fill="#FFF"></path></svg>
