<svg xmlns="http://www.w3.org/2000/svg" height="24" viewBox="0 0 24 24" width="24"><path d="M0 0h24v24H0z" fill="none"/>
<defs>
<style>
.cls{
    fill:#fff;
}
</style>
</defs>
<path fill-rule="evenodd" d="M19 19h-3v-4.6c0-1.1 0-2.5-1.5-2.5s-1.7 1.2-1.7 2.4V19h-3V9.5h2.8v1.3c.5-.7 1.4-1.5 2.9-1.5 3 0 3.5 2 3.5 4.5V19zM6.4 8.2a1.7 1.7 0 1 1 0-3.4 1.7 1.7 0 0 1 0 3.4zM5 19h3V9.5H5V19zM20.5 2h-17C2.7 2 2 2.6 2 3.4v17.2c0 .8.7 1.4 1.5 1.4h17c.8 0 1.5-.6 1.5-1.4V3.4c0-.8-.7-1.4-1.5-1.4z" class="cls"></path></svg>
