<svg xmlns="http://www.w3.org/2000/svg" height="24" viewBox="0 0 24 24" width="24"><path d="M0 0h24v24H0z" fill="none"/>
<defs>
<style>
.cls{
    fill:#fff;
}
</style>
</defs>
<path fill-rule="evenodd" d="M14.98 16.27c5.73 0 10.37-1.91 10.37-4.27 0-2.35-4.64-4.26-10.37-4.26-5.73 0-10.37 1.9-10.37 4.26s4.64 4.27 10.37 4.27zM4 22.97V1.03h21.97v21.92H4zm13.85-13.1l-.27 1.08h-1.16l-.57 2.27h-1.22l.57-2.27h-1.16l.27-1.08h3.54zm-6.74 2.48l1.13-2.48H14l-1.07 4.26h-1.12l.64-2.75-1.34 2.75h-.9v-2.75l-.7 2.75H8.33L9.4 9.87h1.71v2.48zm8.81-.21l.59-2.27h1.12l-1.07 4.26H19.4l-.6-2.32-.58 2.32h-1.13l1.07-4.26h1.24l.53 2.27zm-5.52 2l.15-.62h1.22l-.15.61H14.4z" class="cls"></path></svg>
