<?xml version="1.0" encoding="UTF-8"?>
<svg width="181px" height="54px" viewBox="0 0 181 54" version="1.1" xmlns="http://www.w3.org/2000/svg" xmlns:xlink="http://www.w3.org/1999/xlink">
    <desc>Created with Sketch.</desc>
    <g class="playstore" stroke="none" stroke-width="1" fill="none" fill-rule="evenodd">
        <path d="M100.486557,29.7191642 C101.832501,29.7191642 102.899975,30.2969365 103.455591,30.9347868 L103.455591,30.9347868 L103.541785,30.9347868 L103.541785,30.0489546 L105.891552,30.0489546 L105.891552,39.8097266 C105.891552,43.8260107 103.4357,45.4736842 100.52899,45.4736842 C97.7946676,45.4736842 96.1490349,43.7020197 95.5310938,42.2614239 L95.5310938,42.2614239 L97.6885833,41.3960437 C98.0731389,42.281876 99.013311,43.3313251 100.52899,43.3313251 C102.388118,43.3313251 103.541785,42.2205196 103.541785,40.1395169 L103.541785,40.1395169 L103.541785,39.3572235 L103.455591,39.3572235 C102.899975,40.0168042 101.832501,40.5932982 100.486557,40.5932982 C97.6660404,40.5932982 95.0815616,38.2246876 95.0815616,35.1773225 C95.0815616,32.1095052 97.6660404,29.7191642 100.486557,29.7191642 Z M156.256399,30.0400068 L159.198912,36.9681608 L159.285106,36.9681608 L162.120209,30.0400068 L164.873096,30.0400068 L158.069115,45.1093809 L155.488614,45.1093809 L158.005464,39.7228051 L153.591031,30.0400068 L156.256399,30.0400068 Z M17.314186,12.8225214 L31.3807317,26.7733036 L17.3085287,40.7294982 C16.5976577,40.3836501 16.108291,39.6588002 16.108291,38.8204622 L16.108291,14.7343627 C16.108291,13.893857 16.6002578,13.167321 17.314186,12.8225214 Z M116.594132,29.7191642 C119.520732,29.7191642 120.95287,31.9650621 121.422293,33.1794065 L121.422293,33.1794065 L121.678222,33.7968047 L114.13828,36.8032656 C114.713787,37.8948973 115.611526,38.4509392 116.871277,38.4509392 C118.13368,38.4509392 119.008875,37.853993 119.649359,36.9477087 L119.649359,36.9477087 L121.572137,38.1837834 C120.95287,39.0696156 119.457082,40.5932982 116.871277,40.5932982 C113.667531,40.5932982 111.27533,38.2042355 111.27533,35.1568703 C111.27533,31.9228796 113.688748,29.7191642 116.594132,29.7191642 Z M61.34145,23.7062424 C64.0121223,23.7062424 65.9136834,24.7160655 67.3444954,26.0339487 L67.3444954,26.0339487 L65.6564289,27.6611701 C64.6313894,26.7331554 63.2430111,26.0122183 61.34145,26.0122183 C57.8167992,26.0122183 55.0612595,28.7528018 55.0612595,32.1504094 C55.0612595,35.5480171 57.8167992,38.2873222 61.34145,38.2873222 C63.6275667,38.2873222 64.9297515,37.40149 65.7638393,36.5974662 C66.448083,35.9391638 66.8962892,34.9919752 67.0673501,33.6945441 L67.0673501,33.6945441 L61.34145,33.6945441 L61.34145,31.3885681 L69.3959005,31.3885681 C69.4807679,31.8001669 69.5232017,32.2948525 69.5232017,32.829164 C69.5232017,34.5599242 69.0325618,36.701005 67.4505797,38.2246876 C65.9136834,39.7688223 63.9471456,40.5932982 61.34145,40.5932982 C56.5132883,40.5932982 52.4542378,36.8032656 52.4542378,32.1504094 C52.4542378,27.4962749 56.5132883,23.7062424 61.34145,23.7062424 Z M76.0327995,29.7191642 C79.1516779,29.7191642 81.693723,32.0059664 81.693723,35.1568703 C81.693723,38.2873222 79.1516779,40.5932982 76.0327995,40.5932982 C72.9139211,40.5932982 70.3718761,38.2873222 70.3718761,35.1568703 C70.3718761,32.0059664 72.9139211,29.7191642 76.0327995,29.7191642 Z M88.3823381,29.7191642 C91.5025425,29.7191642 94.0445876,32.0059664 94.0445876,35.1568703 C94.0445876,38.2873222 91.5025425,40.5932982 88.3823381,40.5932982 C85.2634597,40.5932982 82.7214146,38.2873222 82.7214146,35.1568703 C82.7214146,32.0059664 85.2634597,29.7191642 88.3823381,29.7191642 Z M148.38627,29.6897643 C151.222699,29.6897643 153.41997,31.273525 153.41997,34.1099777 L153.41997,34.1099777 L153.41997,40.2366645 L151.030421,40.2366645 L151.030421,39.0031463 L150.945554,39.0031463 C150.370047,39.846796 149.452417,40.5664548 147.789546,40.5664548 C145.613492,40.5664548 143.672149,39.1884936 143.672149,37.0499693 C143.672149,34.7069238 146.082915,33.4529535 148.449921,33.4529535 C149.623478,33.4529535 150.582215,33.8223698 151.030421,34.0690735 L151.030421,34.0690735 L151.030421,33.9041783 C151.010531,32.5888516 149.708346,31.8487407 148.428704,31.8487407 C147.512401,31.8487407 146.638531,32.1363486 146.167782,33.0209026 L146.167782,33.0209026 L143.971837,32.1363486 C144.739622,30.4516056 146.594772,29.6897643 148.38627,29.6897643 Z M110.077903,24.2840146 L110.077903,40.2635079 L107.600835,40.2635079 L107.600835,24.2840146 L110.077903,24.2840146 Z M133.030568,24.2827363 C135.772847,24.2827363 138.47004,26.1975656 138.47004,29.2462091 C138.47004,32.2961307 135.772847,34.2096818 133.030568,34.2096818 L133.030568,34.2096818 L129.574872,34.2096818 L129.574872,40.2635079 L127.101781,40.2635079 L127.101781,24.2827363 Z M142.30764,24.2840146 L142.30764,40.2635079 L139.83455,40.2635079 L139.83455,24.2840146 L142.30764,24.2840146 Z M32.593041,27.9754834 L35.8433901,31.1990536 L20.4625188,40.0060651 L32.593041,27.9754834 Z M100.700051,31.8615233 C98.9907681,31.8615233 97.5599561,33.2612149 97.5599561,35.1773225 C97.5599561,37.0716996 98.9907681,38.4509392 100.700051,38.4509392 C102.388118,38.4509392 103.712845,37.0716996 103.712845,35.1773225 C103.712845,33.2612149 102.388118,31.8615233 100.700051,31.8615233 Z M88.3823381,31.8615233 C86.6730548,31.8615233 85.1998091,33.1998586 85.1998091,35.1568703 C85.1998091,37.0921517 86.6730548,38.4509392 88.3823381,38.4509392 C90.0916214,38.4509392 91.5648671,37.0921517 91.5648671,35.1568703 C91.5648671,33.1998586 90.0916214,31.8615233 88.3823381,31.8615233 Z M76.0327995,31.8615233 C74.3235162,31.8615233 72.8489445,33.1998586 72.8489445,35.1568703 C72.8489445,37.0921517 74.3235162,38.4509392 76.0327995,38.4509392 C77.7420828,38.4509392 79.2153285,37.0921517 79.2153285,35.1568703 C79.2153285,33.1998586 77.7420828,31.8615233 76.0327995,31.8615233 Z M148.770826,35.3844001 C147.554834,35.3844001 146.147891,35.8586336 146.147891,37.0908735 C146.147891,38.0572359 147.277689,38.4483826 148.086582,38.4483826 C149.517394,38.4483826 150.83947,37.4002117 151.030421,35.9187116 C150.370047,35.6119299 149.856864,35.3844001 148.770826,35.3844001 Z M116.680325,31.8206191 C115.420574,31.8206191 113.667531,32.8905203 113.731182,34.9919752 L113.731182,34.9919752 L118.774164,32.9736071 C118.495693,32.2948525 117.662931,31.8206191 116.680325,31.8206191 Z M133.095544,26.5081821 L129.574872,26.5081821 L129.574872,31.9855142 L133.095544,31.9855142 C134.944063,31.9855142 135.994298,30.4848403 135.994298,29.2462091 C135.994298,27.9832909 134.944063,26.5081821 133.095544,26.5081821 L133.095544,26.5081821 Z M37.3779915,23.2299267 L40.6243405,25.0888352 C41.1359219,25.4771881 41.4659283,26.0891167 41.4659283,26.7774125 C41.4659283,27.4553653 41.1459221,28.0590763 40.6474838,28.4481377 L37.3804201,30.3189192 L33.8052075,26.7733036 L37.3779915,23.2299267 Z M20.4715333,13.5494257 L35.8409615,22.349849 L32.593041,25.5709822 L20.4715333,13.5494257 Z M54.9984939,9.47368421 C56.2768613,9.47368421 57.3001099,9.86159119 58.066853,10.6374051 C58.8335961,11.4132191 59.2162744,12.420661 59.2162744,13.6597307 C59.2162744,14.8988005 58.8335961,15.9076377 58.066853,16.6820563 C57.3001099,17.4578703 56.2768613,17.8457772 54.9984939,17.8457772 L52.4542378,17.8457772 L52.4542378,9.47368421 L54.9984939,9.47368421 Z M61.32825,9.47368421 L61.32825,17.8457772 L60.17175,17.8457772 L60.17175,9.47368421 L61.32825,9.47368421 Z M65.1380067,9.47368421 C65.7679256,9.47368421 66.2790385,9.6433166 66.6725831,9.98258138 C67.0673652,10.3231818 67.3235405,10.6945031 67.4398713,11.0965453 L66.5698655,11.4879019 C66.5067498,11.2354568 66.3532922,11.0003757 66.108255,10.7826586 C65.8632178,10.5676128 65.546402,10.459422 65.1590452,10.459422 C64.792727,10.459422 64.4796239,10.5689485 64.2209735,10.789337 C63.9610856,11.0097255 63.8311416,11.2835416 63.8311416,11.6121209 C63.8311416,11.9099793 63.9511851,12.1624244 64.1887969,12.3667846 C64.4288839,12.5724806 64.7791138,12.7568056 65.2419619,12.9210952 C65.6082801,13.0479856 65.9139578,13.1708689 66.1602326,13.2910808 C66.4052698,13.409957 66.6552572,13.5689039 66.9064822,13.7665858 C67.1589448,13.9642676 67.3482917,14.2100342 67.4769981,14.5052213 C67.604467,14.8004084 67.6688202,15.1410088 67.6688202,15.5296941 C67.6688202,15.9170436 67.5945665,16.2643225 67.4460591,16.5701951 C67.2975517,16.8760677 67.0995418,17.1191629 66.8545046,17.2981451 C66.6082299,17.4771273 66.3458668,17.6133675 66.0612277,17.7068657 C65.777826,17.7990282 65.4869991,17.8457772 65.1899843,17.8457772 C64.6504074,17.8457772 64.1244437,17.6561095 63.6096181,17.2754384 C63.0935549,16.8947673 62.7557006,16.3618278 62.5972927,15.6752841 L63.4685361,15.294613 C63.5724913,15.7340543 63.7841143,16.1053756 64.1058803,16.4072411 C64.4288839,16.7091067 64.7890143,16.8613751 65.1899843,16.8613751 C65.6045674,16.8613751 65.9597476,16.7438345 66.2530497,16.5087534 C66.5475894,16.2736723 66.6936216,15.9544429 66.6936216,15.5510651 C66.6936216,15.1036096 66.5475894,14.759002 66.2530497,14.5159068 C65.9597476,14.2741472 65.4944244,14.048416 64.8583178,13.8387129 C64.2011726,13.615653 63.7036728,13.3258087 63.3645809,12.9718513 C63.0267266,12.6165583 62.8559431,12.16376 62.8559431,11.6121209 C62.8559431,11.0364393 63.0675661,10.5368919 63.4895746,10.1121431 C63.9115831,9.68739431 64.4610605,9.47368421 65.1380067,9.47368421 Z M72.0037132,9.47368421 C72.6606066,9.47368421 73.2308625,9.70949816 73.7106016,10.1811261 C74.1916338,10.652754 74.4308568,11.2471726 74.4308568,11.9643819 C74.4308568,12.6815912 74.1916338,13.2760098 73.7106016,13.7462424 C73.2308625,14.2192656 72.6606066,14.4550796 72.0037132,14.4550796 L70.3563073,14.4550796 L70.3563073,17.8457772 L69.3593293,17.8457772 L69.3593293,9.47368421 L72.0037132,9.47368421 Z M79.5016989,9.47368421 C80.69687,9.47368421 81.6987852,9.87973339 82.5115563,10.6931674 C83.3229569,11.5066015 83.7286571,12.4950107 83.7286571,13.6597307 C83.7286571,14.8311292 83.3243275,15.8208741 82.5170388,16.6303011 C81.7083794,17.4410637 80.703723,17.8457772 79.5016989,17.8457772 C78.2996748,17.8457772 77.2950184,17.4410637 76.4877297,16.6303011 C75.6790704,15.8208741 75.2761114,14.8311292 75.2761114,13.6597307 C75.2761114,12.4883323 75.6790704,11.4972517 76.4877297,10.6878247 C77.2950184,9.87839771 78.2996748,9.47368421 79.5016989,9.47368421 Z M86.6188942,9.47368421 L90.3485389,15.9857772 L90.3920259,15.9857772 L90.3485389,14.372754 L90.3485389,9.47368421 L91.3359483,9.47368421 L91.3359483,17.8457772 L90.306331,17.8457772 L86.4052966,11.01694 L86.3618097,11.01694 L86.4052966,12.6313586 L86.4052966,17.8457772 L85.4191663,17.8457772 L85.4191663,9.47368421 L86.6188942,9.47368421 Z M94.3547075,9.47368421 L94.3547075,17.8457772 L93.1982075,17.8457772 L93.1982075,9.47368421 L94.3547075,9.47368421 Z M99.0870995,9.47368421 C99.6674788,9.47368421 100.168828,9.69135863 100.593616,10.1225214 C101.018404,10.5564749 101.230798,11.0992656 101.230798,11.7536842 C101.230798,12.1513586 101.13942,12.5029865 100.955427,12.8057772 C100.773904,13.1113586 100.529404,13.3401958 100.225631,13.4964749 L100.225631,13.5425214 C100.591146,13.6834517 100.891215,13.924847 101.127071,14.2681028 C101.360458,14.6113586 101.479003,15.009033 101.479003,15.4611261 C101.479003,16.1476377 101.255495,16.7155447 100.81095,17.1676377 C100.366404,17.6197307 99.8403578,17.8457772 99.2328117,17.8457772 L96.4074758,17.8457772 L96.4074758,9.47368421 L99.0870995,9.47368421 Z M104.136988,9.47368421 L104.136988,16.8174051 L107.395785,16.8174051 L107.395785,17.8457772 L103.169512,17.8457772 L103.169512,9.47368421 L104.136988,9.47368421 Z M113.312567,9.47368421 L113.312567,10.5020563 L110.016485,10.5020563 L110.016485,13.1560098 L112.988026,13.1560098 L112.988026,14.1620563 L110.016485,14.1620563 L110.016485,16.8160098 L113.312567,16.8160098 L113.312567,17.8457772 L109.086294,17.8457772 L109.086294,9.47368421 L113.312567,9.47368421 Z M119.2343,9.47368421 C119.864218,9.47368421 120.375331,9.6433166 120.768876,9.98258138 C121.163658,10.3231818 121.419833,10.6945031 121.536164,11.0965453 L120.666158,11.4879019 C120.603043,11.2354568 120.449585,11.0003757 120.204548,10.7826586 C119.959511,10.5676128 119.642695,10.459422 119.255338,10.459422 C118.88902,10.459422 118.575917,10.5689485 118.317266,10.789337 C118.057378,11.0097255 117.927435,11.2835416 117.927435,11.6121209 C117.927435,11.9099793 118.047478,12.1624244 118.28509,12.3667846 C118.525177,12.5724806 118.875407,12.7568056 119.338255,12.9210952 C119.704573,13.0479856 120.010251,13.1708689 120.256525,13.2910808 C120.501563,13.409957 120.75155,13.5689039 121.002775,13.7665858 C121.255238,13.9642676 121.444585,14.2100342 121.573291,14.5052213 C121.70076,14.8004084 121.765113,15.1410088 121.765113,15.5296941 C121.765113,15.9170436 121.690859,16.2643225 121.542352,16.5701951 C121.393845,16.8760677 121.195835,17.1191629 120.950798,17.2981451 C120.704523,17.4771273 120.44216,17.6133675 120.157521,17.7068657 C119.874119,17.7990282 119.583292,17.8457772 119.286277,17.8457772 C118.7467,17.8457772 118.220737,17.6561095 117.705911,17.2754384 C117.189848,16.8947673 116.851993,16.3618278 116.693586,15.6752841 L117.564829,15.294613 C117.668784,15.7340543 117.880407,16.1053756 118.202173,16.4072411 C118.525177,16.7091067 118.885307,16.8613751 119.286277,16.8613751 C119.70086,16.8613751 120.05604,16.7438345 120.349343,16.5087534 C120.643882,16.2736723 120.789915,15.9544429 120.789915,15.5510651 C120.789915,15.1036096 120.643882,14.759002 120.349343,14.5159068 C120.05604,14.2741472 119.590717,14.048416 118.954611,13.8387129 C118.297465,13.615653 117.799966,13.3258087 117.460874,12.9718513 C117.123019,12.6165583 116.952236,12.16376 116.952236,11.6121209 C116.952236,11.0364393 117.163859,10.5368919 117.585868,10.1121431 C118.007876,9.68739431 118.557353,9.47368421 119.2343,9.47368421 Z M124.482601,9.47368421 L124.482601,14.6670024 C124.482601,15.3153142 124.64777,15.8380582 124.97944,16.239329 C125.309778,16.639235 125.787969,16.8398704 126.414013,16.8398704 C127.038725,16.8398704 127.516916,16.639235 127.847254,16.239329 C128.178925,15.8380582 128.344094,15.3153142 128.344094,14.6670024 L128.344094,9.47368421 L129.372404,9.47368421 L129.372404,14.620597 C129.372404,15.5896524 129.106003,16.3689913 128.573199,16.9599787 C128.041728,17.550966 127.321111,17.8457772 126.414013,17.8457772 C125.534888,17.8457772 124.823595,17.5482363 124.276139,16.9545192 C123.728684,16.3594373 123.455622,15.5814632 123.455622,14.620597 L123.455622,9.47368421 L124.482601,9.47368421 Z M133.557807,9.47368421 C134.177566,9.47368421 134.715584,9.70949816 135.168203,10.1811261 C135.622042,10.652754 135.847742,11.2471726 135.847742,11.9643819 C135.847742,12.549033 135.681822,13.0653121 135.346323,13.5132191 C135.013264,13.9625214 134.597245,14.2443819 134.099486,14.3615912 L134.078746,14.3964749 L136.134441,17.7997307 L136.134441,17.8457772 L135.020584,17.8457772 L133.046628,14.4550796 L132.003531,14.4550796 L132.003531,17.8457772 L131.062913,17.8457772 L131.062913,9.47368421 L133.557807,9.47368421 Z M79.5016989,10.4580863 C78.6203974,10.4580863 77.8761567,10.7586162 77.2676063,11.3596758 C76.6604265,11.9593998 76.3547807,12.7274204 76.3547807,13.6597307 C76.3547807,14.592041 76.6604265,15.358726 77.2676063,15.9597856 C77.8761567,16.5608453 78.6203974,16.8600394 79.5016989,16.8600394 C80.3816299,16.8600394 81.1272412,16.5608453 81.7357916,15.9597856 C82.344342,15.358726 82.6499878,14.592041 82.6499878,13.6597307 C82.6499878,12.7274204 82.344342,11.9593998 81.7357916,11.3596758 C81.1272412,10.7586162 80.3816299,10.4580863 79.5016989,10.4580863 Z M54.9984939,10.5034517 L53.5232413,10.5034517 L53.5232413,16.8174051 L54.9984939,16.8174051 C55.9593493,16.8174051 56.7205463,16.5411261 57.2820851,15.9871726 C57.843624,15.4332191 58.1237001,14.6574051 58.1237001,13.6597307 C58.1237001,12.6704284 57.843624,11.8974051 57.2820851,11.3392656 C56.7205463,10.7825214 55.9593493,10.5034517 54.9984939,10.5034517 Z M99.2328117,14.0685679 L97.3595448,14.0685679 L97.3595448,16.8174051 L99.2747966,16.8174051 C99.6403121,16.8174051 99.936676,16.6722889 100.163888,16.3834517 C100.392336,16.0960098 100.505942,15.780661 100.505942,15.4374051 C100.505942,15.0941493 100.388631,14.7815912 100.15401,14.4955447 C99.9193881,14.2122889 99.6119106,14.0685679 99.2328117,14.0685679 Z M133.578547,10.5020563 L132.003531,10.5020563 L132.003531,13.449033 L133.516327,13.449033 C133.892086,13.449033 134.214166,13.3081028 134.482565,13.0276377 C134.752184,12.7485679 134.886384,12.392754 134.886384,11.9643819 C134.886384,11.5974051 134.768044,11.2625214 134.528925,10.9583354 C134.291025,10.6541493 133.973826,10.5020563 133.578547,10.5020563 Z M72.0256959,10.5020563 L70.3563073,10.5020563 L70.3563073,13.4253121 L72.0256959,13.4253121 C72.4446594,13.4253121 72.7808647,13.2746144 73.0330187,12.9704284 C73.2864657,12.6662424 73.4118961,12.3313586 73.4118961,11.9643819 C73.4118961,11.5974051 73.2864657,11.2625214 73.0330187,10.9583354 C72.7808647,10.6541493 72.4446594,10.5020563 72.0256959,10.5020563 Z M99.1303192,10.5034517 L97.3595448,10.5034517 L97.3595448,13.0639168 L99.0870995,13.0639168 C99.4464407,13.0639168 99.7353955,12.9299633 99.9527291,12.660661 C100.168828,12.3913586 100.277495,12.09694 100.277495,11.7774051 C100.277495,11.4578703 100.172532,11.164847 99.961373,10.9011261 C99.7514486,10.6360098 99.4748423,10.5034517 99.1303192,10.5034517 Z" id="play-store" fill="#000000" fill-rule="nonzero"></path>
    </g>
</svg>