<svg xmlns="http://www.w3.org/2000/svg" height="24" viewBox="0 0 24 24" width="24"><path d="M0 0h24v24H0z" fill="none"/>
<defs>
<style>
.cls{
    fill:#fff;
}
</style>
</defs>
<path d="M19.6 6.7a4.3 4.3 0 0 0 1.8-2.4 8 8 0 0 1-2.6 1 4 4 0 0 0-3-1.3c-2.2 0-4 2-4 4.3v1c-3.4-.2-6.4-2-8.4-4.5a4.4 4.4 0 0 0-.6 2.1c0 1.5.8 2.8 1.9 3.6a4 4 0 0 1-1.9-.5c0 2.1 1.4 3.8 3.3 4.2a3.9 3.9 0 0 1-1 .2 3.9 3.9 0 0 1-.9 0c.6 1.6 2 2.9 3.9 2.9A8 8 0 0 1 2 19.1 11.3 11.3 0 0 0 8.3 21C15.8 21 20 14.5 20 8.8v-.6A8.5 8.5 0 0 0 22 6a8 8 0 0 1-2.4.7z" class="cls"></path></svg>
