<svg xmlns="http://www.w3.org/2000/svg" height="24" viewBox="0 0 24 24" width="24"><path d="M0 0h24v24H0z" fill="none"/>
<path d="M18 13.01a5 5 0 110 10 5 5 0 010-10zM12.02 1a6.15 6.15 0 014.18 10.65c-1.2.24-2.28.83-3.14 1.64h-2.97c-1.3 0-2.7.6-3.82 1.63a6.99 6.99 0 00-2.2 4.12h7.04c.12.7.34 1.38.66 1.99H2v-1a8.92 8.92 0 015.87-8.35A6.16 6.16 0 0112 1zm8.73 14.8a.6.6 0 00-.42.18l-3.2 3.2-1.42-1.46a.6.6 0 00-.43-.18.6.6 0 00-.43 1l1.84 1.9a.6.6 0 00.85.01l3.63-3.63a.6.6 0 000-.84.59.59 0 00-.42-.18zM12.01 2.98a4.17 4.17 0 10.01 8.34 4.17 4.17 0 000-8.34z"></path>
</svg>
